<?xml version="1.0" encoding="UTF-8" standalone="no"?><svg xmlns="http://www.w3.org/2000/svg" xmlns:xlink="http://www.w3.org/1999/xlink" contentStyleType="text/css" height="332px" preserveAspectRatio="none" style="width:304px;height:332px;background:#FFFFFF;" version="1.1" viewBox="0 0 304 332" width="304px" zoomAndPan="magnify"><defs/><g><rect fill="#F1F1F1" height="35.0938" rx="12.5" ry="12.5" style="stroke:#181818;stroke-width:0.5;" width="200" x="52" y="11"/><text fill="#000000" font-family="sans-serif" font-size="12" lengthAdjust="spacing" textLength="180" x="62" y="33.457">Define High-Level Requirements</text><rect fill="#F1F1F1" height="35.0938" rx="12.5" ry="12.5" style="stroke:#181818;stroke-width:0.5;" width="282" x="11" y="66.0938"/><text fill="#000000" font-family="sans-serif" font-size="12" lengthAdjust="spacing" textLength="262" x="21" y="88.5508">Evaluate Transmission Protocols and Schemes</text><rect fill="#F1F1F1" height="35.0938" rx="12.5" ry="12.5" style="stroke:#181818;stroke-width:0.5;" width="197" x="53.5" y="121.1875"/><text fill="#000000" font-family="sans-serif" font-size="12" lengthAdjust="spacing" textLength="177" x="63.5" y="143.6445">Define Low-Level Requirements</text><rect fill="#F1F1F1" height="35.0938" rx="12.5" ry="12.5" style="stroke:#181818;stroke-width:0.5;" width="227" x="38.5" y="176.2813"/><text fill="#000000" font-family="sans-serif" font-size="12" lengthAdjust="spacing" textLength="207" x="48.5" y="198.7383">Design and Implement First Prototype</text><rect fill="#F1F1F1" height="35.0938" rx="12.5" ry="12.5" style="stroke:#181818;stroke-width:0.5;" width="245" x="29.5" y="231.375"/><text fill="#000000" font-family="sans-serif" font-size="12" lengthAdjust="spacing" textLength="225" x="39.5" y="253.832">Design and Implement Second Prototype</text><rect fill="#F1F1F1" height="35.0938" rx="12.5" ry="12.5" style="stroke:#181818;stroke-width:0.5;" width="251" x="26.5" y="286.4688"/><text fill="#000000" font-family="sans-serif" font-size="12" lengthAdjust="spacing" textLength="231" x="36.5" y="308.9258">Conduct Power and Satellite Pass Testing</text><line style="stroke:#181818;stroke-width:1.0;" x1="152" x2="152" y1="46.0938" y2="66.0938"/><polygon fill="#181818" points="148,56.0938,152,66.0938,156,56.0938,152,60.0938" style="stroke:#181818;stroke-width:1.0;"/><line style="stroke:#181818;stroke-width:1.0;" x1="152" x2="152" y1="101.1875" y2="121.1875"/><polygon fill="#181818" points="148,111.1875,152,121.1875,156,111.1875,152,115.1875" style="stroke:#181818;stroke-width:1.0;"/><line style="stroke:#181818;stroke-width:1.0;" x1="152" x2="152" y1="156.2813" y2="176.2813"/><polygon fill="#181818" points="148,166.2813,152,176.2813,156,166.2813,152,170.2813" style="stroke:#181818;stroke-width:1.0;"/><line style="stroke:#181818;stroke-width:1.0;" x1="152" x2="152" y1="211.375" y2="231.375"/><polygon fill="#181818" points="148,221.375,152,231.375,156,221.375,152,225.375" style="stroke:#181818;stroke-width:1.0;"/><line style="stroke:#181818;stroke-width:1.0;" x1="152" x2="152" y1="266.4688" y2="286.4688"/><polygon fill="#181818" points="148,276.4688,152,286.4688,156,276.4688,152,280.4688" style="stroke:#181818;stroke-width:1.0;"/><!--MD5=[489a3d09b06302e2095b57e32c314181]
@startuml
:Define High-Level Requirements;
:Evaluate Transmission Protocols and Schemes;
:Define Low-Level Requirements;
:Design and Implement First Prototype;
:Design and Implement Second Prototype;
:Conduct Power and Satellite Pass Testing;
@enduml

PlantUML version 1.2022.7(Mon Aug 22 13:01:30 EDT 2022)
(GPL source distribution)
Java Runtime: OpenJDK Runtime Environment
JVM: OpenJDK 64-Bit Server VM
Default Encoding: Cp1252
Language: en
Country: US
--></g></svg>